# xmcd
#
# Track frame offsets:
#	150
#	16306
#	31469
#	45707
#	60386
#	76379
#	92495
#	105842
#	123602
#	137897
#	149846
#	165461
#	180671
#	190989
#	202796
#
# Disc length: 2900 seconds
#
# Revision: 0
# Processed by: cddbd v1.5.2PL0 Copyright (c) Steve Scherf et al.
# Submitted via: EasyCDDAExtractor 16.0.8.2
#
DISCID=c60b520f
DTITLE=Συλλογικός δίσκος - Κάνε μου τέτοια 2
DYEAR=2014
DGENRE=Τσιφτετέλια
TTITLE0=Διονυσίου Στράτος-Βλαχάκη Μαρίνα - Ο λαός τραγούδι θέλει [Τ.Σούκας-Γ.Π
TTITLE0=απαγιαν)λος/Γ.Βρούβας]
TTITLE1=Βιτάλη Ελένη - Βάρα μου το ντέφι [Τ. Σούκας-Ν. Λουκάς]
TTITLE2=Γκρέϋ Καίτη - Κάτσε στον καναπέ μου [Σ. Χρυσίνης-Χαρ. Βασιλειάδης]
TTITLE3=Καζαντζίδης Στέλιος - Έχεις κορμί αράπικο [Σ. Καζαντζίδης-Χρ. Κολοκοτρ
TTITLE3=ώνης]
TTITLE4=Άνευ ερμηνευτού - Ο Βαγγέλης έχει κέφια [ορχ., Β. Περπινιάδης]
TTITLE5=Άνευ ερμηνευτού - Το τσιφτετέλι του Μπουρνέλη [ορχ., Λ. Μπουρνέλης]
TTITLE6=Μενιδιάτης Μιχάλης-Γκίκα Βούλα - Μην περιμένεις πια [Απ. Καλδάρας]
TTITLE7=Λύδια Γιώτα - Κάψε, κάψε [Β. Βασιλείαδης-Πυθαγόρας]
TTITLE8=Παπαδάκης Μάνος - Μιά δεκάρα [Β. Βασιλειάδης-Πυθαγόρας]
TTITLE9=Αθηναϊκή κομπανία - Αξίζεις πολλά [Κ. Κόρος-Άγγ. Αξιώτης]
TTITLE10=Αγγελόπουλος Μανώλης - Όταν χορεύεις μάτια μου [Χ. Νικολόπουλος-Λ. Χα
TTITLE10=ψιάδης]
TTITLE11=Σφακιανάκης Νότης - Ο πρόσφυγας [Ν. Πετρίδης-Μάρω Μπιζάνη]
TTITLE12=Ζαγοραίος Σπύρος - Μέσ' στης πόλης το χαμάμ [Αν. Δελιάς]
TTITLE13=Διονυσίου Στράτος - Και του λιμανιού και του σαλονιού [Τ. Μουσαφίρης]
TTITLE14=Τσαουσάκης Πρόδρομος-Διαμάντη Λίτσα - Να καεί το πελεκούδι [Θ. Δερβεν
TTITLE14=ιώτης-Κ. Βίρβος]
EXTD=
EXTT0=
EXTT1=
EXTT2=
EXTT3=
EXTT4=
EXTT5=
EXTT6=
EXTT7=
EXTT8=
EXTT9=
EXTT10=
EXTT11=
EXTT12=
EXTT13=
EXTT14=
PLAYORDER=
